<svg xmlns="http://www.w3.org/2000/svg" version="1.1" xmlns:xlink="http://www.w3.org/1999/xlink" xmlns:svgjs="http://svgjs.dev/svgjs" width="800" height="180" preserveAspectRatio="none" viewBox="0 0 800 180">
    <g mask="url(&quot;#SvgjsMask1000&quot;)" fill="none">
        <rect width="800" height="180" x="0" y="0" fill="rgba(18, 122, 127, 1)"></rect>
        <path d="M45 36.96C39.02 36.96 32.95 40.68 32.95 45C32.95 49.66 39.04 54.93 45 54.93C50.78 54.93 56.44 49.67 56.44 45C56.44 40.69 50.77 36.96 45 36.96" stroke="rgba(134, 206, 203, 1)" stroke-width="2"></path>
        <path d="M135 29.12C131.85 29.12 129.6 37.31 129.6 45C129.6 50.07 131.94 54.64 135 54.64C138.39 54.64 142.5 50.23 142.5 45C142.5 37.47 138.3 29.12 135 29.12" stroke="rgba(134, 206, 203, 1)" stroke-width="2"></path>
        <path d="M360 31.27C352.96 34.45 351.1 37.71 351.1 45C351.1 55.52 353.04 57.69 360 66.89C370.06 80.19 371.81 79.44 385.15 90C394.31 97.25 395.62 102.5 405 102.5C412.44 102.5 417.73 98.35 418.78 90C421.34 69.6 416.64 67.25 412.22 45C409.75 32.56 414.26 23.07 405 20.63C388.15 16.2 379.91 22.27 360 31.27" stroke="rgba(134, 206, 203, 1)" stroke-width="2"></path>
        <path d="M532.5 0C537.39 0.78 535.5 7.22 540 7.22C549 7.22 549.39 1.62 559.5 0C571.89 -1.99 572.25 0 585 0C601.63 0 604.59 -5.47 618.26 0C627.09 3.53 625.73 18 630 18C633.67 18 627.14 2.8 634.15 0C649.64 -6.2 654.58 0 675 0C692.46 0 705.31 -9.6 709.93 0C716.14 12.9 694.95 23.08 696.67 45C698.48 68.08 716.39 67.28 717 90C717.59 112.28 708.54 112.71 699.07 135C689.42 157.71 689.94 159.09 678.75 180C677.9 181.59 676.88 180 675 180C652.5 180 652.5 180 630 180C612.13 180 608.56 185.8 594.25 180C586.06 176.68 590.63 161.76 585 161.76C578.5 161.76 579.91 175.98 570 180C557.41 185.1 555 180 540 180C520.72 180 520.45 181.22 501.43 180C497.95 179.78 498.26 177.12 495 177.12C491.17 177.12 491.33 179.74 487.24 180C468.83 181.18 468.62 180 450 180C427.5 180 427.5 180 405 180C382.5 180 382.5 180 360 180C355 180 353.87 182.85 350 180C331.37 166.27 331.67 146.84 315 146.84C299.85 146.84 302.74 167.93 286.36 180C280.24 184.51 278.18 180 270 180C247.5 180 247.5 180 225 180C202.5 180 202.5 180 180 180C157.5 180 157.5 180 135 180C112.5 180 112.5 180 90 180C67.5 180 67.5 180 45 180C22.5 180 11.83 190.67 0 180C-10.67 170.36 -1.76 159 0 139.38C0.26 136.5 4.04 137.34 4.04 135C4.04 132.18 0.31 132.56 0 129.06C-1.71 110.06 0 109.53 0 90C0 67.5 0 67.5 0 45C0 22.5 -11.25 11.25 0 0C11.25 -11.25 22.5 0 45 0C67.5 0 67.5 0 90 0C112.5 0 112.5 0 135 0C157.5 0 157.5 0 180 0C202.5 0 202.5 0 225 0C247.5 0 247.5 0 270 0C292.5 0 292.5 0 315 0C337.5 0 337.5 0 360 0C382.5 0 382.5 0 405 0C427.5 0 427.5 0 450 0C472.5 0 472.5 0 495 0C513.75 0 514.89 -2.83 532.5 0" stroke="rgba(134, 206, 203, 1)" stroke-width="2"></path>
        <path d="M795.94 45C798.66 28.89 769.81 13.08 773.9 0C776.84 -9.42 801.97 -10.02 810 0C820.02 12.48 810 22.5 810 45C810 67.5 810 67.5 810 90C810 112.5 810 112.5 810 135C810 157.5 821.25 168.75 810 180C798.75 191.25 787.5 180 765 180C756.25 180 749.6 186.29 747.5 180C742.1 163.79 755.93 155.64 750 135C743 110.64 718.03 109.82 721.64 90C725.53 68.69 741.15 67.17 765 52.73C778.3 44.67 794.21 55.25 795.94 45" stroke="rgba(134, 206, 203, 1)" stroke-width="2"></path>
        <path d="M90 123.07C83.03 123.07 79.35 129.19 79.35 135C79.35 140.48 83.28 145.65 90 145.65C107.64 145.65 128.08 140.62 128.08 135C128.08 129.33 107.39 123.07 90 123.07" stroke="rgba(134, 206, 203, 1)" stroke-width="2"></path>
        <path d="M45 23.57C29.06 23.57 12.86 33.47 12.86 45C12.86 57.42 29.1 71.47 45 71.47C60.42 71.47 75.51 57.45 75.51 45C75.51 33.5 60.38 23.57 45 23.57" stroke="rgba(134, 206, 203, 1)" stroke-width="2"></path>
        <path d="M123.95 0C128.96 13.18 105.26 23.22 107.1 45C109.06 68.22 136.05 72.99 131.54 90C127.5 105.25 108.43 96.62 90 109.52C76.29 119.12 67.26 122.58 67.26 135C67.26 146.69 75.97 154.42 90 157.74C109.84 162.43 114.97 158.81 135 151.02C144.22 147.44 141.61 142.89 148.5 135C164.11 117.1 162.33 114.62 180 99.44C188.53 92.12 200.89 97.81 200.89 90C200.89 76.84 189.97 74.02 180 57.5C176.4 51.52 177.09 51.14 173.75 45C161.44 22.39 146.76 13.99 148.7 0C149.88 -8.51 164.35 0 180 0C202.5 0 202.5 0 225 0C247.5 0 247.5 0 270 0C292.5 0 292.5 0 315 0C337.5 0 337.5 0 360 0C372 0 384 -2.87 384 0C384 3.23 369.23 3.02 360 12.2C346.6 25.52 349.63 28.77 338.74 45C327.13 62.32 328.86 64.26 315 79.29C308.11 86.76 299.87 81.21 297.24 90C291.53 109.07 305.44 115.43 298.33 135C291.82 152.93 283.75 149.64 270 165C263.61 172.14 266.31 177.25 258.05 180C243.81 184.75 241.52 180 225 180C209.89 180 208.16 184.27 194.79 180C185.66 177.09 187.64 165.63 180 165.63C171.76 165.63 172.98 176.82 163.03 180C150.48 184.01 149.01 180 135 180C112.5 180 112.5 180 90 180C67.5 180 67.5 180 45 180C22.5 180 14.46 188.04 0 180C-8.04 175.54 -4.42 165.77 0 155C4.81 143.27 18.46 145.69 18.46 135C18.46 122.1 5.98 122.41 0 107.83C-3.25 99.91 0 98.91 0 90C0 67.5 0 67.5 0 45C0 22.5 -11.25 11.25 0 0C11.25 -11.25 22.5 0 45 0C67.5 0 67.5 0 90 0C106.97 0 120.41 -9.32 123.95 0" stroke="rgba(134, 206, 203, 1)" stroke-width="2"></path>
        <path d="M426.11 45C420.48 22.99 411.62 13.34 418.7 0C423.56 -9.16 434.35 0 450 0C472.5 0 472.5 0 495 0C506.54 0 508.38 -4.55 518.08 0C530.88 6 527.49 12.7 540 21.11C560.95 35.2 585 31.97 585 45C585 58.8 562.1 59.33 540 74.77C529.89 81.83 520.59 81.03 520.59 90C520.59 102.02 527.42 106.81 540 116.76C555.87 129.31 576.43 121.44 577.5 135C578.93 153.06 562.2 159.36 545 180C543.45 181.86 542.5 180 540 180C536.79 180 536.54 181.14 533.57 180C514.04 172.49 514.67 163.17 495 162.69C472.89 162.15 472.13 179.02 450 177.95C427.13 176.84 428.35 165.23 405 158.33C383.35 151.93 380.4 159.05 360 151.36C349.47 147.39 343.13 144.41 343.13 135C343.13 121.23 347.17 107.42 360 105C378.11 101.58 384.78 127.04 405 123.33C425.64 119.54 436.35 109.98 441.73 90C446.9 70.81 431.99 67.99 426.11 45" stroke="rgba(134, 206, 203, 1)" stroke-width="2"></path>
        <path d="M675 33.26C663.83 33.26 651.46 10.54 651.46 0C651.46 -6.09 663.23 0 675 0C685.07 0 695.13 -5.67 695.13 0C695.13 10.96 685.66 33.26 675 33.26" stroke="rgba(134, 206, 203, 1)" stroke-width="2"></path>
        <path d="M810 31.76C803.41 31.76 786.26 9.93 786.26 0C786.26 -5.95 804.92 -6.79 810 0C816.79 9.09 815.28 31.76 810 31.76" stroke="rgba(134, 206, 203, 1)" stroke-width="2"></path>
        <path d="M666.56 90C666.56 84.53 671.44 81 675 81C677.91 81 679.5 85.16 679.5 90C679.5 103.16 678.18 117 675 117C671.71 117 666.56 102.53 666.56 90" stroke="rgba(134, 206, 203, 1)" stroke-width="2"></path>
        <path d="M742.09 90C742.09 79.02 752.74 70.31 765 70.31C780.35 70.31 783.29 77.93 797.31 90C805.79 97.3 807.03 98.5 810 109.04C813.37 121 810 122.02 810 135C810 157.5 817.36 164.86 810 180C806.43 187.36 791.82 187.36 788.14 180C780.57 164.86 794.69 153.86 787.5 135C783.12 123.51 774.64 128.85 765 119.3C751.93 106.35 742.09 103.52 742.09 90" stroke="rgba(134, 206, 203, 1)" stroke-width="2"></path>
        <path d="M225 108.24C217.34 108.24 211.06 122.64 211.06 135C211.06 143.2 217.61 149.35 225 149.35C233.42 149.35 242.68 143.53 242.68 135C242.68 122.98 233.15 108.24 225 108.24" stroke="rgba(134, 206, 203, 1)" stroke-width="2"></path>
        <path d="M609.66 180C609.66 170.96 618.97 151.44 630 151.44C642.16 151.44 656.05 171.47 656.05 180C656.05 185.75 643.03 180 630 180C619.83 180 609.66 185.24 609.66 180" stroke="rgba(134, 206, 203, 1)" stroke-width="2"></path>
        <path d="M45 10.18C23.58 2.15 0 2.58 0 0C0 -2.51 22.5 0 45 0C67.5 0 67.5 0 90 0C97.1 0 104.21 -4.72 104.21 0C104.21 12.16 102.4 31.62 90 33.75C72.8 36.71 68.58 19.02 45 10.18" stroke="rgba(134, 206, 203, 1)" stroke-width="2"></path>
        <path d="M180 11.67C175.71 11.67 173.15 3.87 173.15 0C173.15 -1.96 176.57 0 180 0C186.3 0 192.6 -2.47 192.6 0C192.6 3.37 185.44 11.67 180 11.67" stroke="rgba(134, 206, 203, 1)" stroke-width="2"></path>
        <path d="M289.76 45C283.96 26.54 286.85 15.79 295.71 0C299.47 -6.71 305.36 0 315 0C330 0 342.83 -8.58 345 0C348.52 13.92 337.01 23.22 326.37 45C322.01 53.94 322.3 61.43 315 61.43C304 61.43 293.61 57.25 289.76 45" stroke="rgba(134, 206, 203, 1)" stroke-width="2"></path>
        <path d="M440 45C437.82 23.12 438.81 19.53 443.15 0C443.81 -2.97 446.58 0 450 0C472.5 0 472.5 0 495 0C499.33 0 503.65 -2.87 503.65 0C503.65 7.36 501.23 11.45 495 20.45C485.66 33.95 483.84 32.81 472.5 45C461.34 56.99 459.09 68.82 450 68.82C442.84 68.82 441.25 57.53 440 45" stroke="rgba(134, 206, 203, 1)" stroke-width="2"></path>
        <path d="M517.5 45C517.5 39.51 528.92 35 540 35C549.59 35 558.84 39.55 558.84 45C558.84 50.78 549.66 57.46 540 57.46C528.99 57.46 517.5 50.74 517.5 45" stroke="rgba(134, 206, 203, 1)" stroke-width="2"></path>
        <path d="M675 8.8C672.04 8.8 668.77 2.79 668.77 0C668.77 -1.61 671.88 0 675 0C677.66 0 680.33 -1.5 680.33 0C680.33 2.9 677.82 8.8 675 8.8" stroke="rgba(134, 206, 203, 1)" stroke-width="2"></path>
        <path d="M810 15.22C806.84 15.22 798.63 4.76 798.63 0C798.63 -2.85 807.57 -3.25 810 0C813.25 4.36 812.53 15.22 810 15.22" stroke="rgba(134, 206, 203, 1)" stroke-width="2"></path>
        <path d="M25.71 90C27.52 82.99 36.33 91.93 45 88.01C68.48 77.37 72.02 60.26 90 60.88C100.87 61.25 102.69 77.83 102.69 90C102.69 95.37 95.02 91.21 90 95.96C71.26 113.71 55.16 115.97 55.16 135C55.16 152.91 69.14 160.67 90 169.84C109.06 178.21 114.11 166.19 135 170.08C141.41 171.27 144.59 177.07 144.59 180C144.59 182.03 139.8 180 135 180C112.5 180 112.5 180 90 180C67.5 180 67.5 180 45 180C22.5 180 18.62 183.88 0 180C-3.88 179.19 -2.66 174.27 0 170.63C13.78 151.77 26.25 155.78 32.88 135C39.11 115.47 21.46 106.48 25.71 90" stroke="rgba(134, 206, 203, 1)" stroke-width="2"></path>
        <path d="M486 90C489.54 85.09 491.38 81.82 495 81.82C497.65 81.82 496.27 86.17 498.53 90C511.95 112.76 527.43 117.27 526.36 135C525.67 146.41 510.9 148.27 495 148.27C476.06 148.27 458.61 147.54 456.67 135C454.11 118.4 470.37 111.68 486 90" stroke="rgba(134, 206, 203, 1)" stroke-width="2"></path>
        <path d="M762.55 90C762.55 88.82 763.69 87.89 765 87.89C766.64 87.89 768.46 88.78 768.46 90C768.46 91.41 766.6 93.14 765 93.14C763.64 93.14 762.55 91.45 762.55 90" stroke="rgba(134, 206, 203, 1)" stroke-width="2"></path>
        <path d="M164.57 135C164.57 126.58 172.32 117.58 180 117.58C187.64 117.58 195.21 126.57 195.21 135C195.21 142.78 187.63 150 180 150C172.31 150 164.57 142.79 164.57 135" stroke="rgba(134, 206, 203, 1)" stroke-width="2"></path>
        <path d="M262.77 135C262.77 117.6 266.32 98.18 270 98.18C273.69 98.18 277.5 117.66 277.5 135C277.5 140.04 273.71 142.94 270 142.94C266.35 142.94 262.77 139.98 262.77 135" stroke="rgba(134, 206, 203, 1)" stroke-width="2"></path>
        <path d="M210.86 180C210.86 175.78 217.77 165.65 225 165.65C232.57 165.65 240.47 175.86 240.47 180C240.47 183.04 232.74 180 225 180C217.93 180 210.86 182.96 210.86 180" stroke="rgba(134, 206, 203, 1)" stroke-width="2"></path>
        <path d="M625.07 180C625.07 177.81 627.33 173.08 630 173.08C632.95 173.08 636.32 177.93 636.32 180C636.32 181.39 633.16 180 630 180C627.54 180 625.07 181.27 625.07 180" stroke="rgba(134, 206, 203, 1)" stroke-width="2"></path>
    </g>
    <defs>
        <mask id="SvgjsMask1000">
            <rect width="800" height="180" fill="#ffffff"></rect>
        </mask>
    </defs>
</svg>